<svg xmlns="http://www.w3.org/2000/svg" width="800" height="800" viewBox="0 0 64 64" xmlns:v="https://vecta.io/nano"><path d="M46.773 14.112c.515.052.955.162 1.309.252l.505.113c.448-.344.963-.978.948-1.507-.477-.184-1.27-.527-1.872-1.448-.596-.938-.7-1.829-.776-2.479-.044-.372-.078-.666-.189-.959-.163-.426-.175-.896-.034-1.329.088-.272.194-.506.299-.734L43 7.271v5.803l.794.275c1.019.365 1.825.652 2.979.763zM2 11v6.156l1.922-.076.807-.044c.425-.023.847-.168 1.335-.335.661-.228 1.412-.484 2.314-.484a4.67 4.67 0 0 1 2.098.504c1.245.607 1.876 1.559 2.383 2.322.274.413.511.77.811 1.021.709.595 1.312.808 2.148 1.102.826.292 1.763.622 2.845 1.348l2.338 1.737V2.606L3.309 9.124C2.525 9.412 2 10.166 2 11zm18.09 32.093l-.17-.012-.006.181c-.022.691-.055 1.735-.769 2.666-.82 1.09-1.949 1.666-3.265 1.666-.718 0-1.395-.167-1.991-.314l-.363-.088c-1.226-.279-1.983-1.005-2.537-1.534-.263-.252-.512-.49-.659-.526l-.861-.164c-.043 0-.122 0-.3.072-.45.184-.708.805-1.19 2.18l-.489 1.333c-.162.41-.198.939-.235 1.5-.075 1.11-.177 2.632-1.433 3.827-.896.854-1.912 1.27-3.103 1.27A5.83 5.83 0 0 1 2 55.095V60c0 .635.306 1.238.818 1.613.345.253.754.387 1.182.387.204 0 .407-.031.603-.093L21 56.729V43.193a1.1 1.1 0 0 0-.34-.068l-.57-.032zm3.542-40.99C23.428 2.034 23.216 2 23 2v24.147l1.213 1.329c.519.591.866 1.182 1.146 1.657.334.567.521.873.81 1.06.04.025.059.031.078.032.153 0 .454-.089.745-.176.528-.157 1.188-.354 1.961-.354.571 0 1.128.109 1.669.33l.347.143c1.569.643 3.521 1.443 4.364 4.208.527 1.7.525 3.133-.001 4.777-.387 1.233-1.182 1.86-1.657 2.234l-.295.249-.017.052c-.024.084.025.346.07.576.123.635.309 1.595-.14 2.712-.764 1.856-2.263 2.798-4.456 2.798-.229 0-.461-.009-.689-.023-1.413-.083-2.312-.787-2.968-1.302l-.71-.51A9.45 9.45 0 0 1 23 44.848v11.247l.603.19L41 61.781V23.214l-.552.014-1.177.026c-.229 0-.467-.004-.716-.015l-.265-.005c-.462 0-.888.049-1.339.1l-1.562.113c-.7 0-1.371-.091-2.052-.279-.225-.062-.464-.107-.717-.154-1.016-.191-2.55-.479-3.646-2.281-1.29-2.169-1.303-4.838-.027-7.151 1.267-2.267 3.243-2.387 4.551-2.466l.898-.079a8.14 8.14 0 0 1 1.114-.077c1.619 0 2.844.492 4.026.968l1.462.53V7.892l-.6-.199-16.766-5.59zm37.347 28.833l-.104-.021c-1.498-.3-2.675-.772-3.893-2.189-.879-1.005-1.068-2.183-1.207-3.042-.048-.301-.12-.751-.198-.893-.146.012-.427.09-.676.158-.509.141-1.142.316-1.875.343-.615.027-1.179.179-1.775.34-.728.196-1.553.418-2.508.418-.685 0-1.344-.111-2.021-.342-1.055-.361-1.744-.943-2.298-1.41-.379-.32-.653-.551-1.007-.698-.146-.062-.282-.106-.418-.15v38.325l17.632-5.877A2 2 0 0 0 62 54V31.096l-1.021-.16z" fill="#45aab8"/><path d="M62.364.773a4 4 0 0 0-2.366-.772c-.403 0-.809.061-1.202.185L41.033 5.795 24.264.205A3.99 3.99 0 0 0 22.999 0a3.98 3.98 0 0 0-1.382.247l-19 7A4 4 0 0 0 0 11v49a4 4 0 0 0 1.636 3.227C2.33 63.735 3.16 64 4 64c.404 0 .811-.062 1.204-.186L23 58.194l17.796 5.62c.392.124.797.186 1.203.186a4 4 0 0 0 1.266-.205l18-6A4 4 0 0 0 64 54V4A4 4 0 0 0 62.364.773zM21 56.729L4.603 61.907C4.407 61.969 4.204 62 4 62c-.428 0-.837-.134-1.182-.387C2.306 61.238 2 60.635 2 60v-4.904l.719.055c1.191 0 2.207-.416 3.103-1.271 1.256-1.195 1.357-2.717 1.433-3.827.037-.561.073-1.09.235-1.5l.489-1.333c.482-1.375.74-1.996 1.19-2.18.178-.072.257-.072.3-.072.18 0 .496.076.861.164.147.036.396.274.659.526.554.529 1.312 1.255 2.537 1.534l.363.088c.597.147 1.273.314 1.991.314 1.315 0 2.444-.576 3.265-1.666.714-.931.746-1.975.769-2.666l.006-.181.17.012.57.032a1.1 1.1 0 0 1 .34.068v13.536zm0-15.56c-.095-.013-.18-.039-.28-.043l-1.025-.055c-.485 0-.921.102-1.357.576-.753.811-.105 2.186-.79 3.078-.498.662-1.057.868-1.666.868-.592 0-1.231-.193-1.91-.353-1.364-.311-1.815-1.725-3.173-2.055-.509-.122-.916-.22-1.329-.22-.329 0-.661.062-1.054.22-1.688.687-1.969 2.589-2.786 4.63-.668 1.69-.005 3.489-1.188 4.616-.575.549-1.126.718-1.722.718-.231 0-.471-.026-.719-.064v-33.93l2.839-.123c1.395-.077 2.395-.816 3.539-.816.384 0 .784.083 1.221.302 1.337.652 1.586 2.073 2.785 3.077 1.81 1.518 3.247 1.292 5.163 2.577 1.428.959 2.418 1.758 3.453 2.786v14.211zm0-16.919c-.702-.588-1.444-1.137-2.338-1.737-1.082-.726-2.019-1.056-2.845-1.348-.836-.294-1.439-.507-2.148-1.102-.3-.251-.536-.607-.811-1.021-.507-.764-1.138-1.715-2.383-2.322a4.67 4.67 0 0 0-2.098-.504c-.902 0-1.653.257-2.314.484-.488.167-.91.312-1.335.335l-.806.045L2 17.156V11c0-.834.525-1.588 1.309-1.876L21 2.606V24.25zm2 4.911c.747 1.009 1.04 2.037 2.081 2.711.404.262.789.354 1.165.354.901 0 1.754-.529 2.706-.529a2.34 2.34 0 0 1 .899.176c1.597.666 2.955 1.078 3.57 3.098.403 1.3.414 2.296 0 3.587-.408 1.305-1.603 1.236-1.979 2.569-.335 1.14.43 2.019 0 3.091-.53 1.29-1.509 1.559-2.606 1.559a9.24 9.24 0 0 1-.572-.02c-1.178-.069-1.708-.907-2.78-1.539-1.021-.602-1.726-1.426-2.484-2.075V29.161zm18-7.947l-1.729.04c-.204 0-.414-.004-.634-.013l-.347-.007c-1.107 0-1.954.213-2.901.213-.467 0-.957-.052-1.517-.206-1.29-.358-2.361-.188-3.179-1.532-.949-1.595-.901-3.518 0-5.152.944-1.69 2.367-1.306 3.975-1.539.296-.04.575-.059.843-.059 1.997 0 3.314 1.027 5.488 1.592v6.663zm0-8.757l-1.462-.53c-1.183-.476-2.407-.968-4.026-.968a8.14 8.14 0 0 0-1.114.077c-.293.042-.587.061-.898.079-1.308.079-3.284.199-4.551 2.466-1.275 2.313-1.263 4.982.027 7.151 1.096 1.803 2.63 2.09 3.646 2.281l.717.154c.681.188 1.352.279 2.052.279.569 0 1.074-.058 1.562-.113l1.339-.1.265.005.716.015 1.177-.026.552-.014V61.78l-17.397-5.494-.605-.189V44.85a9.45 9.45 0 0 0 1.47 1.091c.24.142.469.32.71.51.656.515 1.555 1.219 2.968 1.302l.689.023c2.193 0 3.692-.941 4.456-2.798.448-1.117.263-2.077.14-2.712-.045-.23-.095-.492-.07-.576l.017-.052c.03-.04.184-.16.295-.249.476-.374 1.271-1.001 1.657-2.234.526-1.645.528-3.077.001-4.777-.843-2.765-2.795-3.565-4.364-4.208l-.347-.143c-.541-.221-1.098-.33-1.669-.33-.773 0-1.433.196-1.961.354-.291.087-.592.176-.745.176-.02-.001-.038-.007-.078-.032-.288-.187-.476-.492-.81-1.06-.279-.476-.627-1.066-1.146-1.657L23 26.149V2c.216 0 .428.034.632.103L40.4 7.692l.6.2v4.565zm2-5.186l3.962-1.251-.299.734c-.141.434-.129.903.034 1.329.111.293.146.587.189.959.076.65.181 1.542.776 2.479.603.921 1.396 1.265 1.872 1.448.015.529-.5 1.163-.948 1.507-.121-.017-.339-.071-.505-.113-.354-.09-.794-.2-1.309-.252-1.154-.111-1.96-.398-2.979-.763l-.794-.275V7.271zM62 54c0 .862-.55 1.625-1.368 1.897L43 61.774V23.449l.418.15c.354.147.628.378 1.007.698.554.467 1.243 1.049 2.298 1.41a6.18 6.18 0 0 0 2.021.342c.955 0 1.78-.222 2.508-.418.597-.161 1.16-.312 1.775-.34.733-.026 1.366-.202 1.875-.343l.676-.158c.078.142.15.592.198.893.139.859.328 2.037 1.207 3.042 1.218 1.417 2.395 1.89 3.893 2.189l.104.021 1.021.16V54zm0-24.914l-.732-.132c-1.167-.233-1.899-.521-2.78-1.546-1.04-1.188-.435-3.11-1.581-4.114-.442-.378-.866-.504-1.294-.504-.824-.001-1.662.468-2.675.504-1.666.074-2.812.756-4.194.756-.427 0-.877-.064-1.372-.233-1.342-.46-1.856-1.511-3.178-2.061-.426-.18-.815-.291-1.193-.374V15.19c1.126.401 2.13.773 3.575.912.791.079 1.43.38 2.07.38.36 0 .721-.096 1.108-.38 1.199-.894 2.229-2.522 1.592-4.108-.414-1.045-1.411-.652-1.995-1.545-.626-.984-.329-1.883-.785-3.078.284-.876.768-1.492 1.036-2.185l9.794-3.093A1.99 1.99 0 0 1 59.999 2a2.01 2.01 0 0 1 1.184.386A2.01 2.01 0 0 1 62 4v25.086zm-6.694 10.236c-.678-.208-1.318-.404-2.01-.404-.652 0-1.241.177-1.804.543-.632.417-.814.932-.856 1.289-.111.965.604 1.723 1.361 2.525.506.536 1.27 1.346 1.122 1.731-.096.256-.386.396-.979.633-.737.296-1.853.741-2.094 2.071-.136.738.032 1.416.485 1.96.637.763 1.791 1.183 3.253 1.183 1.49 0 2.955-.43 3.928-1.156 1.653-1.268 2.287-3.12 1.884-5.503-.402-2.431-1.864-4.109-4.29-4.872zm1.199 8.781c-.61.456-1.679.751-2.721.751-.919 0-1.523-.232-1.717-.464-.034-.041-.093-.111-.055-.32.037-.199.191-.301.87-.572.715-.286 1.694-.678 2.107-1.782.593-1.553-.639-2.858-1.539-3.812l-.735-.843c.525-.277 1.124-.096 2.054.19 1.642.517 2.575 1.586 2.854 3.274.282 1.665-.066 2.771-1.118 3.578z" fill="#394240"/><path d="M61.182 2.387a2.01 2.01 0 0 0-1.184-.386c-.204 0-.407.031-.603.093l-9.794 3.093c-.269.692-.752 1.309-1.036 2.185.456 1.195.159 2.094.785 3.078.584.893 1.581.5 1.995 1.545.637 1.586-.393 3.215-1.592 4.108a1.8 1.8 0 0 1-1.108.38c-.641 0-1.279-.301-2.07-.38-1.445-.139-2.449-.511-3.575-.913v6.191a6.64 6.64 0 0 1 1.193.374c1.321.55 1.836 1.601 3.178 2.061.495.169.945.233 1.372.233 1.383 0 2.528-.682 4.194-.756 1.013-.036 1.851-.505 2.675-.504.428 0 .852.126 1.294.504 1.146 1.004.541 2.926 1.581 4.114.881 1.024 1.613 1.312 2.78 1.546l.732.132V4c.001-.635-.305-1.238-.817-1.613zM34.669 13.018c-1.607.233-3.03-.151-3.975 1.539-.901 1.635-.949 3.558 0 5.152.817 1.345 1.889 1.174 3.179 1.532.56.154 1.05.206 1.517.206.947 0 1.794-.213 2.901-.213l.347.007.634.013 1.729-.04v-6.663c-2.174-.564-3.491-1.592-5.488-1.592a6.28 6.28 0 0 0-.844.059zm-4.817 18.854c-.312-.127-.61-.176-.899-.176-.952 0-1.805.529-2.706.529-.376 0-.761-.092-1.165-.354-1.042-.673-1.335-1.701-2.082-2.71v12.98c.759.649 1.463 1.474 2.484 2.075 1.072.632 1.603 1.47 2.78 1.539l.572.02c1.098 0 2.076-.269 2.606-1.559.43-1.072-.335-1.951 0-3.091.376-1.333 1.57-1.265 1.979-2.569.414-1.291.403-2.287 0-3.587-.614-2.019-1.973-2.431-3.569-3.097zM12.384 21.596c-1.199-1.004-1.448-2.425-2.785-3.077-.437-.219-.837-.302-1.221-.302-1.145 0-2.145.739-3.539.816L2 19.156v33.93c.248.038.487.064.719.064.596 0 1.146-.169 1.722-.718 1.184-1.127.521-2.926 1.188-4.616.817-2.041 1.099-3.943 2.786-4.63.393-.158.725-.22 1.054-.22.413 0 .82.098 1.329.22 1.357.33 1.809 1.744 3.173 2.055.679.159 1.318.353 1.91.353.609 0 1.168-.206 1.666-.868.685-.893.037-2.268.79-3.078.437-.475.872-.576 1.357-.576.315 0 .653.044 1.025.055.101.004.186.03.28.043V26.96c-1.035-1.028-2.025-1.827-3.453-2.786-1.915-1.286-3.353-1.061-5.162-2.578zM54.77 41.25c-.93-.286-1.528-.468-2.054-.19.165.238.497.591.735.843.9.954 2.132 2.26 1.539 3.812-.413 1.104-1.393 1.496-2.107 1.782-.679.271-.833.373-.87.572-.038.209.021.279.055.32.193.231.798.464 1.717.464 1.042 0 2.11-.295 2.721-.751 1.052-.807 1.4-1.912 1.118-3.578-.279-1.688-1.213-2.757-2.854-3.274z" fill="#f9ebb2"/><path opacity=".2" fill="#231f20" d="M41 61.781L23 56V2l18 6z"/></svg>